<svg xmlns="http://www.w3.org/2000/svg" xmlns:xlink="http://www.w3.org/1999/xlink" width="130" height="36" viewBox="0 12 65.32 23" preserveAspectRatio="xMidYMid meet" version="1.2"><g id="c8018e91e3"><g><path style=" stroke:none;fill-rule:nonzero;fill:#ffffff;fill-opacity:1;" d="M 2.980469 20.398438 L 0 22.65625 L 12.914063 32.445312 L 12.914063 27.925781 L 5.273438 22.136719 L 5.960938 22.65625 L 12.914063 17.386719 L 12.914063 12.867188 Z M 2.980469 20.398438 "/></g><g style="fill:#ffffff;fill-opacity:1;"><g transform="translate(13.848875, 28.864773)"><path style="stroke:none" d="M 0.5625 -5.59375 C 0.5625 -6.738281 0.773438 -7.742188 1.203125 -8.609375 C 1.640625 -9.472656 2.226562 -10.140625 2.96875 -10.609375 C 3.71875 -11.078125 4.550781 -11.3125 5.46875 -11.3125 C 6.257812 -11.3125 6.953125 -11.148438 7.546875 -10.828125 C 8.140625 -10.515625 8.59375 -10.097656 8.90625 -9.578125 L 8.90625 -11.15625 L 12.328125 -11.15625 L 12.328125 0 L 8.90625 0 L 8.90625 -1.578125 C 8.570312 -1.054688 8.109375 -0.632812 7.515625 -0.3125 C 6.929688 0 6.242188 0.15625 5.453125 0.15625 C 4.546875 0.15625 3.71875 -0.078125 2.96875 -0.546875 C 2.226562 -1.023438 1.640625 -1.695312 1.203125 -2.5625 C 0.773438 -3.4375 0.5625 -4.445312 0.5625 -5.59375 Z M 8.90625 -5.578125 C 8.90625 -6.429688 8.671875 -7.101562 8.203125 -7.59375 C 7.734375 -8.082031 7.15625 -8.328125 6.46875 -8.328125 C 5.789062 -8.328125 5.210938 -8.082031 4.734375 -7.59375 C 4.265625 -7.113281 4.03125 -6.445312 4.03125 -5.59375 C 4.03125 -4.738281 4.265625 -4.0625 4.734375 -3.5625 C 5.210938 -3.0625 5.789062 -2.8125 6.46875 -2.8125 C 7.15625 -2.8125 7.734375 -3.054688 8.203125 -3.546875 C 8.671875 -4.046875 8.90625 -4.722656 8.90625 -5.578125 Z M 8.90625 -5.578125 "/></g></g><g style="fill:#ffffff;fill-opacity:1;"><g transform="translate(27.315698, 28.864773)"><path style="stroke:none" d="M 5.46875 -11.3125 C 6.257812 -11.3125 6.953125 -11.148438 7.546875 -10.828125 C 8.140625 -10.515625 8.59375 -10.097656 8.90625 -9.578125 L 8.90625 -11.15625 L 12.328125 -11.15625 L 12.328125 -0.015625 C 12.328125 1.003906 12.125 1.929688 11.71875 2.765625 C 11.3125 3.597656 10.691406 4.257812 9.859375 4.75 C 9.023438 5.25 7.988281 5.5 6.75 5.5 C 5.101562 5.5 3.765625 5.109375 2.734375 4.328125 C 1.710938 3.546875 1.128906 2.488281 0.984375 1.15625 L 4.359375 1.15625 C 4.460938 1.582031 4.710938 1.914062 5.109375 2.15625 C 5.515625 2.40625 6.007812 2.53125 6.59375 2.53125 C 7.300781 2.53125 7.863281 2.328125 8.28125 1.921875 C 8.695312 1.515625 8.90625 0.867188 8.90625 -0.015625 L 8.90625 -1.59375 C 8.570312 -1.070312 8.113281 -0.648438 7.53125 -0.328125 C 6.945312 -0.00390625 6.257812 0.15625 5.46875 0.15625 C 4.550781 0.15625 3.71875 -0.078125 2.96875 -0.546875 C 2.226562 -1.023438 1.640625 -1.695312 1.203125 -2.5625 C 0.773438 -3.4375 0.5625 -4.445312 0.5625 -5.59375 C 0.5625 -6.738281 0.773438 -7.742188 1.203125 -8.609375 C 1.640625 -9.472656 2.226562 -10.140625 2.96875 -10.609375 C 3.71875 -11.078125 4.550781 -11.3125 5.46875 -11.3125 Z M 8.90625 -5.578125 C 8.90625 -6.429688 8.671875 -7.101562 8.203125 -7.59375 C 7.734375 -8.082031 7.15625 -8.328125 6.46875 -8.328125 C 5.789062 -8.328125 5.210938 -8.082031 4.734375 -7.59375 C 4.265625 -7.113281 4.03125 -6.445312 4.03125 -5.59375 C 4.03125 -4.738281 4.265625 -4.0625 4.734375 -3.5625 C 5.210938 -3.0625 5.789062 -2.8125 6.46875 -2.8125 C 7.15625 -2.8125 7.734375 -3.054688 8.203125 -3.546875 C 8.671875 -4.046875 8.90625 -4.722656 8.90625 -5.578125 Z M 8.90625 -5.578125 "/></g></g><g style="fill:#ffffff;fill-opacity:1;"><g transform="translate(40.782521, 28.864773)"><path style="stroke:none" d="M 11.75 -5.75 C 11.75 -5.4375 11.726562 -5.101562 11.6875 -4.75 L 3.953125 -4.75 C 4.003906 -4.0625 4.226562 -3.535156 4.625 -3.171875 C 5.019531 -2.804688 5.503906 -2.625 6.078125 -2.625 C 6.929688 -2.625 7.523438 -2.984375 7.859375 -3.703125 L 11.484375 -3.703125 C 11.304688 -2.960938 10.972656 -2.300781 10.484375 -1.71875 C 9.992188 -1.132812 9.378906 -0.675781 8.640625 -0.34375 C 7.910156 -0.0078125 7.09375 0.15625 6.1875 0.15625 C 5.101562 0.15625 4.132812 -0.0703125 3.28125 -0.53125 C 2.425781 -1 1.757812 -1.664062 1.28125 -2.53125 C 0.800781 -3.40625 0.5625 -4.421875 0.5625 -5.578125 C 0.5625 -6.734375 0.796875 -7.742188 1.265625 -8.609375 C 1.742188 -9.472656 2.40625 -10.140625 3.25 -10.609375 C 4.101562 -11.078125 5.082031 -11.3125 6.1875 -11.3125 C 7.269531 -11.3125 8.226562 -11.082031 9.0625 -10.625 C 9.90625 -10.175781 10.5625 -9.53125 11.03125 -8.6875 C 11.507812 -7.851562 11.75 -6.875 11.75 -5.75 Z M 8.25 -6.65625 C 8.25 -7.238281 8.046875 -7.703125 7.640625 -8.046875 C 7.242188 -8.398438 6.75 -8.578125 6.15625 -8.578125 C 5.582031 -8.578125 5.097656 -8.410156 4.703125 -8.078125 C 4.304688 -7.742188 4.066406 -7.269531 3.984375 -6.65625 Z M 8.25 -6.65625 "/></g></g><g style="fill:#ffffff;fill-opacity:1;"><g transform="translate(52.990573, 28.864773)"><path style="stroke:none" d="M 8.03125 -11.265625 C 9.34375 -11.265625 10.382812 -10.84375 11.15625 -10 C 11.9375 -9.15625 12.328125 -7.992188 12.328125 -6.515625 L 12.328125 0 L 8.9375 0 L 8.9375 -6.0625 C 8.9375 -6.800781 8.742188 -7.375 8.359375 -7.78125 C 7.972656 -8.195312 7.453125 -8.40625 6.796875 -8.40625 C 6.140625 -8.40625 5.617188 -8.195312 5.234375 -7.78125 C 4.847656 -7.375 4.65625 -6.800781 4.65625 -6.0625 L 4.65625 0 L 1.234375 0 L 1.234375 -11.15625 L 4.65625 -11.15625 L 4.65625 -9.671875 C 5 -10.160156 5.460938 -10.546875 6.046875 -10.828125 C 6.640625 -11.117188 7.300781 -11.265625 8.03125 -11.265625 Z M 8.03125 -11.265625 "/></g></g></g></svg>