<svg width="120" height="24" viewBox="0 0 120 24" fill="none" xmlns="http://www.w3.org/2000/svg">
  <!-- Emagen A logo -->
  <g transform="translate(0, 0)">
    <path d="M11.5 3L3 21H7.5L9 17.5H14L15.5 21H20L11.5 3ZM10.5 14L11.5 11.5L12.5 14H10.5Z" fill="white"/>
  </g>
  
  <!-- Cagen text -->
  <g transform="translate(28, 0)">
    <path d="M 8 18.5 C 5.5 18.5 3.5 17.5 2.5 16 C 1.5 14.5 1 12.5 1 10 C 1 7.5 1.5 5.5 2.5 4 C 3.5 2.5 5.5 1.5 8 1.5 C 9.5 1.5 10.5 2 11.5 2.5 C 12.5 3 13 4 13.5 5 L 11 6.5 C 10.5 5.5 10 5 9.5 4.5 C 9 4 8.5 4 8 4 C 6.5 4 5.5 4.5 5 5.5 C 4.5 6.5 4 8 4 10 C 4 12 4.5 13.5 5 14.5 C 5.5 15.5 6.5 16 8 16 C 8.5 16 9 16 9.5 15.5 C 10 15 10.5 14.5 11 13.5 L 13.5 15 C 13 16 12.5 17 11.5 17.5 C 10.5 18 9.5 18.5 8 18.5 Z" fill="white"/>
    <path d="M 22 18 L 22 14.5 C 21.5 15.5 21 16.5 20.5 17 C 20 17.5 19 18 18 18 C 17 18 16 17.5 15.5 17 C 15 16.5 14.5 15.5 14.5 14.5 C 14.5 13 15 12 16 11.5 C 17 11 18.5 10.5 20.5 10.5 L 22 10.5 L 22 9.5 C 22 8.5 21.5 8 21 7.5 C 20.5 7 20 7 19 7 C 18 7 17.5 7 17 7.5 C 16.5 8 16 8.5 16 9.5 L 14 9 C 14 7.5 14.5 6.5 15.5 5.5 C 16.5 4.5 18 4 19.5 4 C 21 4 22 4.5 23 5.5 C 24 6.5 24.5 8 24.5 9.5 L 24.5 18 L 22 18 Z M 19 15.5 C 19.5 15.5 20 15 20.5 14.5 C 21 14 21.5 13.5 22 13 L 22 12.5 L 20.5 12.5 C 19.5 12.5 18.5 12.5 18 13 C 17.5 13.5 17 14 17 14.5 C 17 15 17.5 15.5 18 15.5 C 18.5 16 19 15.5 19 15.5 Z" fill="white"/>
    <path d="M 33 21 C 31.5 21 30.5 20.5 29.5 20 C 28.5 19.5 28 18.5 27.5 17.5 C 27 16.5 26.5 15 26.5 13.5 L 26.5 13 C 26.5 11.5 27 10 27.5 9 C 28 8 28.5 7 29.5 6.5 C 30.5 6 31.5 5.5 33 5.5 C 34 5.5 35 6 35.5 6.5 C 36 7 36.5 7.5 37 8 L 37 4.5 L 39.5 4.5 L 39.5 17.5 C 39.5 19 39 20 38 20.5 C 37 21 35.5 21 33 21 Z M 33.5 16 C 34.5 16 35.5 15.5 36 14.5 C 36.5 13.5 37 12.5 37 11 C 37 9.5 36.5 8.5 36 7.5 C 35.5 6.5 34.5 6 33.5 6 C 32.5 6 31.5 6.5 31 7.5 C 30.5 8.5 30 9.5 30 11 C 30 12.5 30.5 13.5 31 14.5 C 31.5 15.5 32.5 16 33.5 16 Z" fill="white"/>
    <path d="M 49 18.5 C 47 18.5 45.5 18 44.5 17 C 43.5 16 43 14.5 43 12.5 L 43 12 C 43 10.5 43.5 9 44 8 C 44.5 7 45.5 6 46.5 5.5 C 47.5 5 48.5 4.5 50 4.5 C 51.5 4.5 52.5 5 53.5 5.5 C 54.5 6 55 7 55.5 8 C 56 9 56 10.5 56 12 L 56 13 L 45.5 13 C 45.5 14 46 15 46.5 15.5 C 47 16 48 16.5 49 16.5 C 50 16.5 50.5 16 51 15.5 C 51.5 15 52 14.5 52 14 L 55.5 14 C 55.5 15 55 16 54.5 16.5 C 54 17 53 17.5 52 18 C 51 18.5 50 18.5 49 18.5 Z M 45.5 10.5 L 53.5 10.5 C 53.5 9.5 53 8.5 52.5 8 C 52 7.5 51 7 50 7 C 49 7 48 7.5 47.5 8 C 47 8.5 46.5 9.5 45.5 10.5 Z" fill="white"/>
    <path d="M 58 18 L 58 5 L 60.5 5 L 60.5 6.5 C 61 5.5 61.5 5 62 4.5 C 62.5 4 63.5 3.5 64.5 3.5 C 66 3.5 67 4 67.5 5 C 68 6 68.5 7.5 68.5 9.5 L 68.5 18 L 66 18 L 66 10 C 66 9 65.5 8 65 7.5 C 64.5 7 64 6.5 63 6.5 C 62 6.5 61.5 7 61 7.5 C 60.5 8 60.5 9 60.5 10 L 60.5 18 L 58 18 Z" fill="white"/>
  </g>
</svg>